<svg viewBox="0 0 720 320" xmlns="http://www.w3.org/2000/svg" font-family="sans-serif">
  <!-- Direction A: Bubble Bot -->
  <g transform="translate(20,20)">
    <ellipse cx="100" cy="260" rx="50" ry="9" fill="#2D2D5F" opacity="0.10"/>
    <circle cx="100" cy="90" r="70" fill="#F4F4FF" stroke="#2D2D5F" stroke-width="4"/>
    <circle cx="78" cy="82" r="14" fill="#2D2D5F"/>
    <circle cx="122" cy="82" r="14" fill="#2D2D5F"/>
    <path d="M75 112 Q100 132 125 112" fill="none" stroke="#2D2D5F" stroke-width="5" stroke-linecap="round"/>
    <ellipse cx="100" cy="190" rx="55" ry="60" fill="#F4F4FF" stroke="#2D2D5F" stroke-width="4"/>
    <path d="M50 170 Q30 190 38 215" fill="none" stroke="#2D2D5F" stroke-width="6" stroke-linecap="round"/>
    <path d="M150 170 Q170 190 162 215" fill="none" stroke="#2D2D5F" stroke-width="6" stroke-linecap="round"/>
    <text x="100" y="300" text-anchor="middle" font-size="15" fill="#2D2D5F">A — Bubble Bot</text>
  </g>

  <!-- Direction B: Screen-Face Companion (chosen) -->
  <g transform="translate(260,20)">
    <rect x="-8" y="-8" width="216" height="296" rx="16" fill="none" stroke="#6C63FF" stroke-width="3" stroke-dasharray="6 5"/>
    <ellipse cx="100" cy="262" rx="50" ry="9" fill="#2D2D5F" opacity="0.10"/>
    <line x1="100" y1="18" x2="100" y2="3" stroke="#2D2D5F" stroke-width="4" stroke-linecap="round"/>
    <circle cx="100" cy="3" r="8" fill="#FFC94D" stroke="#2D2D5F" stroke-width="2.5"/>
    <path d="M55 168 Q38 182 42 205" fill="none" stroke="#2D2D5F" stroke-width="5" stroke-linecap="round"/>
    <path d="M145 168 Q162 182 158 205" fill="none" stroke="#2D2D5F" stroke-width="5" stroke-linecap="round"/>
    <rect x="62" y="148" width="76" height="72" rx="26" fill="#F4F4FF" stroke="#2D2D5F" stroke-width="4"/>
    <circle cx="100" cy="180" r="8" fill="#6C63FF"/>
    <rect x="36" y="20" width="128" height="106" rx="34" fill="#F4F4FF" stroke="#2D2D5F" stroke-width="4"/>
    <rect x="58" y="48" width="84" height="54" rx="16" fill="#2D2D5F"/>
    <circle cx="82" cy="72" r="5" fill="#7DEFFF"/>
    <circle cx="118" cy="72" r="5" fill="#7DEFFF"/>
    <path d="M82 88 Q100 98 118 88" fill="none" stroke="#7DEFFF" stroke-width="3.5" stroke-linecap="round"/>
    <text x="100" y="300" text-anchor="middle" font-size="15" fill="#6C63FF" font-weight="700">B — Screen-Face (chosen)</text>
  </g>

  <!-- Direction C: Orb Scout -->
  <g transform="translate(500,20)">
    <ellipse cx="100" cy="220" rx="46" ry="9" fill="#2D2D5F" opacity="0.10"/>
    <circle cx="100" cy="150" r="85" fill="#F4F4FF" stroke="#2D2D5F" stroke-width="4"/>
    <circle cx="100" cy="150" r="85" fill="none" stroke="#FFC94D" stroke-width="4" stroke-dasharray="2 10"/>
    <circle cx="75" cy="140" r="16" fill="#2D2D5F"/>
    <circle cx="125" cy="140" r="16" fill="#2D2D5F"/>
    <path d="M70 172 Q100 194 130 172" fill="none" stroke="#2D2D5F" stroke-width="5" stroke-linecap="round"/>
    <text x="100" y="300" text-anchor="middle" font-size="15" fill="#2D2D5F">C — Orb Scout</text>
  </g>
</svg>
