<svg width="128" height="128" viewBox="0 0 128 128">
  <path d="M20 111c21 15 68 15 88 0 16-12 18-78 0-94-19-17-68-17-88 0-18 16-16 82 0 94Z" fill="#FFFFFF"/>
  <rect x="17" y="17" width="94" height="94" rx="25" fill="#FF8A00" opacity=".18"/>
    <path d="M34 91l9-27 36-36c6-6 19 7 13 13L56 77 34 91Z" fill="#FFD23F" stroke="#D88C00" stroke-width="5" stroke-linejoin="round"/>
  <path d="M75 32l21 21" stroke="#FF8A00" stroke-width="7" stroke-linecap="round"/>
  <path d="M34 91l18-6-12-12-6 18Z" fill="#1E2A44"/>


</svg>
